<svg version="1.1" id="Layer_1" xmlns="http://www.w3.org/2000/svg" xmlns:xlink="http://www.w3.org/1999/xlink" x="0px" y="0px" viewBox="0 0 100 100" xml:space="preserve"><desc>Copyright Opto 22</desc> 
	 <g>
<g id="shape">

		<path fill="#BC4512" d="M94.529,84.112c-0.079,0.01-0.14,0.042-0.163,0.084c-0.006,0.012-0.009,0.024-0.009,0.036
			c0,0.011,0.003,0.022,0.008,0.032c0.033,0.066,0.154,0.104,0.277,0.088c0.079-0.01,0.14-0.042,0.163-0.084"></path>
		<path fill="#BC4512" d="M93.417,84.702c-0.079,0.011-0.141,0.042-0.163,0.084c-0.006,0.012-0.009,0.024-0.009,0.036
			c0,0.011,0.003,0.022,0.008,0.032c0.034,0.065,0.154,0.104,0.277,0.088c0.079-0.01,0.14-0.042,0.163-0.084"></path>
		<path fill="#BC4512" d="M92.305,85.293c-0.079,0.011-0.141,0.042-0.163,0.084c-0.006,0.012-0.009,0.024-0.009,0.036
			c0,0.011,0.003,0.022,0.008,0.032c0.034,0.065,0.154,0.104,0.277,0.088c0.079-0.01,0.14-0.042,0.163-0.084"></path>
		<path fill="#BC4512" d="M91.194,85.884c-0.079,0.011-0.141,0.042-0.163,0.084c-0.006,0.012-0.009,0.024-0.009,0.036
			c0,0.011,0.003,0.022,0.008,0.032c0.034,0.065,0.154,0.104,0.277,0.088c0.079-0.01,0.14-0.042,0.163-0.084"></path>
		<path fill="#BC4512" d="M90.082,86.475c-0.079,0.011-0.141,0.042-0.163,0.084c-0.006,0.012-0.009,0.024-0.009,0.036
			c0,0.011,0.003,0.022,0.008,0.032c0.034,0.065,0.154,0.104,0.277,0.088c0.079-0.01,0.14-0.042,0.163-0.084"></path>
		<path fill="#BC4512" d="M88.97,87.066c-0.079,0.011-0.14,0.042-0.163,0.084c-0.006,0.012-0.009,0.024-0.009,0.036
			c0,0.011,0.003,0.022,0.008,0.032c0.034,0.065,0.154,0.104,0.277,0.088c0.079-0.01,0.14-0.042,0.163-0.084"></path>
		<path fill="#BC4512" d="M87.859,87.657c-0.079,0.011-0.14,0.042-0.163,0.084c-0.006,0.012-0.009,0.024-0.009,0.036
			c0,0.011,0.003,0.022,0.008,0.032c0.034,0.065,0.154,0.104,0.277,0.088c0.079-0.01,0.14-0.042,0.163-0.084"></path>
		<path fill="#BC4512" d="M86.747,88.247c-0.079,0.011-0.14,0.042-0.163,0.084c-0.006,0.012-0.009,0.024-0.009,0.036
			c0,0.011,0.003,0.022,0.008,0.032c0.033,0.065,0.154,0.104,0.277,0.088c0.079-0.01,0.14-0.042,0.163-0.084"></path>
		<path fill="#BC4512" d="M85.636,88.838c-0.079,0.011-0.14,0.042-0.163,0.084c-0.006,0.012-0.009,0.024-0.009,0.036
			c0,0.011,0.003,0.021,0.008,0.032c0.033,0.065,0.154,0.104,0.277,0.088c0.079-0.01,0.14-0.042,0.163-0.084"></path>
		<path fill="#BC4512" d="M84.524,89.429c-0.079,0.011-0.139,0.042-0.163,0.084c-0.006,0.012-0.009,0.024-0.009,0.036
			c0,0.011,0.003,0.021,0.008,0.032c0.032,0.066,0.154,0.105,0.277,0.088c0.079-0.01,0.14-0.042,0.163-0.084"></path>

	<path fill="#BC4512" d="M95.122,84.022l-4.928-2.621l-10.948,5.822l-0.665,0.875l-0.821-1.691c1.137-0.858,1.954-2.277,2.282-4.221
		l-0.225-0.773l-4.567-3.5l1.583-28.691l2.102-1.117V45.34l-2.004-1.065l-5.422,2.883c0.103-0.226,0.191-0.472,0.24-0.762
		c0.342-2.027-0.876-4.818-2.722-6.232c-0.105-0.08-0.21-0.153-0.313-0.221l0.009-0.023L45.7,27.679l-0.388-1.99
		c-0.121-0.621-0.682-1.365-1.247-1.652L41.436,22.7c-0.565-0.287-1.356-0.122-1.759,0.367l-0.172,0.208
		c-0.02-0.003-0.039-0.008-0.059-0.011c-0.059-0.007-0.117,0.002-0.177,0.002c-0.093,0-0.185-0.002-0.277,0.014
		c-0.075,0.013-0.143,0.041-0.216,0.065c-0.073,0.024-0.144,0.045-0.212,0.08c-0.073,0.036-0.135,0.084-0.2,0.131
		c-0.034,0.025-0.074,0.042-0.106,0.07c-0.001,0-0.001,0.001-0.002,0.001c-0.003,0.003-0.008,0.004-0.011,0.007
		c0.001-0.001,0.003-0.001,0.005-0.002c-0.024,0.014-0.04,0.037-0.063,0.052l-16.451-8.747l0.498-2.058v-0.019
		c-0.088-0.909-1.16-12.047-1.16-12.047C21.036,0.412,20.741,0.083,20.347,0l-0.055,0.017c-0.376-0.055-0.75,0.12-0.938,0.455
		c-0.05,0.089-0.095,0.178-0.144,0.267l-3.35,1.771l-0.521,0.156c-0.394-0.083-0.797,0.101-0.993,0.453
		c-4.574,8.19-6.604,16.211-6.205,24.52c0.018,0.384,0.273,0.716,0.639,0.832c0.102,0.033,0.205,0.043,0.308,0.04
		c0.05,0.027,0.097,0.058,0.152,0.076l0.471-0.249v8.862l-0.565,0.3c-0.168,0.089-0.233,0.299-0.143,0.467
		c0.09,0.168,0.299,0.232,0.468,0.143l1.257-0.669v3.684c0,0.191,0.094,0.317,0.237,0.388v6.35
		c-0.146,0.055-0.261,0.148-0.321,0.285c-0.004,0.007-0.016,0.011-0.02,0.018c-0.02,0.037-0.03,0.074-0.03,0.112
		c0,0.016,0.008,0.031,0.011,0.046c-0.002,0.019-0.011,0.033-0.011,0.053v2.85l-6.526-3.47c-0.266-0.142-0.539-0.201-0.798-0.193
		c-0.009,0-0.016-0.003-0.025-0.003c-0.178,0-0.329,0.044-0.431,0.109c-0.047,0.021-0.098,0.033-0.143,0.06
		c-0.403,0.242-0.634,0.696-0.634,1.246v3.938c-0.178,0.074-0.317,0.175-0.383,0.297c-0.03,0.056-0.045,0.114-0.045,0.171
		c0,0.053,0.014,0.106,0.039,0.158c0.157,0.316,0.742,0.502,1.333,0.422c0.38-0.051,0.673-0.203,0.783-0.406
		c0.03-0.055,0.045-0.113,0.045-0.17c0-0.053-0.013-0.107-0.039-0.158c-0.058-0.117-0.191-0.209-0.351-0.284
		c0-0.992,0-3.969,0-3.969l7.165,3.809c0.003,0.002,0.007,0.003,0.01,0.004v4.313c-0.145,0.071-0.256,0.163-0.313,0.269
		c-0.03,0.055-0.045,0.113-0.045,0.172c0,0.052,0.013,0.105,0.039,0.157c0.157,0.316,0.742,0.502,1.333,0.423
		c0.38-0.052,0.673-0.203,0.783-0.407c0.03-0.055,0.045-0.112,0.045-0.169c0-0.053-0.014-0.107-0.039-0.159
		c-0.067-0.134-0.226-0.24-0.421-0.317v-8.663c0.005-0.007,0.017-0.011,0.021-0.019c0.02-0.036,0.03-0.074,0.03-0.111
		c0-0.035-0.008-0.069-0.025-0.103c-0.03-0.061-0.092-0.111-0.166-0.155c-0.05-0.055-0.109-0.1-0.18-0.134v-6.382
		c0.135-0.073,0.224-0.197,0.224-0.382v-4.144c0-0.052-0.009-0.098-0.022-0.141l1.618-0.86c0.169-0.089,0.232-0.298,0.143-0.467
		c-0.089-0.168-0.299-0.232-0.467-0.142l-0.312,0.165v-8.852l1.409-0.745l-0.04-0.093c0.225-0.035,0.436-0.143,0.584-0.33
		c0,0,2.578-3.273,4.47-5.675l16.609,8.831l0.443,2.274c0.121,0.621,0.682,1.364,1.246,1.652l1.59,0.808L21.146,75.971l-1.323,0.575
		v0.23l1.978,1.019l1.324-0.575v-0.23l0.008-0.018l0.041,0.005l2.39-5.648l25.433,2.965l1.585,5.906v0.287l1.196,0.518
		c0.589,1.635,1.395,3.24,2.375,4.71l-1.389,3.322l13.968,7.522l1.266-0.691l-0.475-3.64l3.66,1.971l1.137-0.62l0.703,1.28
		c0.381,0.891,0.983,1.725,1.71,2.282c0.84,0.644,1.661,0.778,2.25,0.461l1.554-0.748c0.023-0.012,0.042-0.033,0.064-0.046
		L86.604,100l10.949-5.822v-4.604L95.122,84.022z M42.498,34.315l-0.087-1.086c0.438,0.033,0.894-0.13,1.191-0.444l19.99,10.629
		c0.114,1.187,0.622,2.471,1.376,3.541v3.681l-6.581,3.499v2.763l2.003,1.065l0.677-0.36l-0.634,11.496l-0.465,0.245
		c-0.151,0.896-0.18,1.85-0.117,2.83l-0.713,2.774l-3.758-2.88l-0.582,0.154l-1.862,0.981L42.498,34.315z M46.303,56.814
		l-2.018-0.235l-0.525-6.543l1.251,1.962L46.303,56.814z M41.124,48.799l-7.987,4.519l4.981-11.775l2.446,0.285L41.124,48.799z
		 M32.416,55.025l8.808-4.983l0.5,6.238l-9.377-1.093L32.416,55.025z M43.675,48.981l-0.224-2.793l1.132,4.217L43.675,48.981z
		 M67.534,49.271v-0.187c0.079,0.027,0.156,0.044,0.233,0.063L67.534,49.271z M74.304,69.972c-0.065-0.434-0.169-0.878-0.313-1.317
		l0.006-0.003c-0.015-0.045-0.036-0.088-0.052-0.133c-0.059-0.169-0.124-0.335-0.196-0.5c-0.036-0.082-0.072-0.163-0.111-0.243
		c-0.075-0.156-0.158-0.305-0.245-0.453c-0.046-0.079-0.091-0.158-0.141-0.234c-0.097-0.148-0.204-0.285-0.314-0.421
		c-0.051-0.063-0.098-0.13-0.152-0.19c-0.17-0.187-0.351-0.362-0.55-0.515c-0.849-0.651-1.678-0.792-2.279-0.483l-2.014,1.075
		c-0.173,0.089-0.32,0.225-0.45,0.387c-1.001-0.697-1.966-0.84-2.678-0.475l-1.554,0.748c-0.367,0.189-0.657,0.522-0.859,0.969
		l-0.468,0.124l-0.078,0.041l0.634-11.503l12.915-6.867L74.304,69.972z M41.914,58.641l-14.44,8.17l4.437-10.489l9.91,1.155
		L41.914,58.641z M46.632,58.038l1.864,6.945l-4.047-6.349l-0.069-0.858L46.632,58.038z M19.644,11.124l-2.37-1.26
		c-0.008-0.085-0.016-0.169-0.024-0.254l2.288-5.521c0.169,1.755,0.397,4.124,0.583,6.052C19.95,10.469,19.792,10.797,19.644,11.124
		z M17.406,11.237l1.793,0.953c-0.223,0.587-0.401,1.173-0.552,1.761l-0.396,0.216l-0.592-0.315
		C17.589,13.134,17.502,12.223,17.406,11.237z M10.171,28.096l2.206-1.167v8.854l-2.206,1.173V28.096z M15.066,21.461
		c0.491-0.623,0.877-1.113,1.049-1.332l0.989-0.523c-0.756,0.959-1.525,1.935-2.141,2.717L15.066,21.461z M26,70.191l0.007-0.018
		l0.041,0.005l0.636-1.503l15.337-8.677l0.364,4.538l1.358-0.141l1.194,0.333l0.575-1.093l-0.667-0.05l-0.238-2.974l4.689,7.357
		l1.369,5.101L26,70.191z"></path>
</g>
<g id="dark">
	<path fill="#993300" d="M13.138,20.931c-1.039,1.319-2.276,2.89-3.182,4.04c0.044-2.715,0.362-5.406,0.961-8.089l2.395,1.273
		C13.17,19.075,13.11,19.998,13.138,20.931z"></path>
	<path fill="#993300" d="M13.539,16.973l-2.348-1.248c0.182-0.719,0.385-1.439,0.608-2.158l2.392,1.272
		C13.921,15.55,13.705,16.261,13.539,16.973z"></path>
	<path fill="#993300" d="M14.636,13.771l-2.476-1.316c0.646-1.902,1.434-3.807,2.37-5.718c0.169,1.755,0.397,4.124,0.583,6.052
		C14.943,13.117,14.784,13.444,14.636,13.771z"></path>
	<path fill="#873300" d="M67.317,45.551c-0.372-0.286-0.736-0.347-1-0.212c-0.189,0.098-0.326,0.298-0.377,0.591l0.184-0.104
		c0.19-0.098,0.454-0.053,0.724,0.154c0.466,0.357,0.773,1.06,0.687,1.571v0.823c0.131,0.009,0.255-0.006,0.36-0.062
		c0.186-0.1,0.321-0.301,0.37-0.593C68.384,47.015,67.959,46.044,67.317,45.551z"></path>
	<path fill="#873300" d="M61.457,88.526c-0.049,0.291-0.183,0.491-0.369,0.592c-0.263,0.141-0.63,0.081-1.006-0.207
		c-0.641-0.491-1.064-1.459-0.945-2.163c0.05-0.296,0.188-0.498,0.379-0.596c0.263-0.135,0.625-0.073,0.996,0.212
		C61.153,86.854,61.576,87.822,61.457,88.526z"></path>
	<polygon fill="#873300" points="43.759,50.035 45.01,51.997 44.583,50.405 43.675,48.981 43.451,46.189 42.336,42.034 
		40.565,41.828 41.124,48.799 33.138,53.318 32.489,54.851 41.214,49.915 41.724,56.28 44.285,56.578 	"></polygon>
	<polygon fill="#873300" points="48.496,64.983 44.449,58.634 44.381,57.775 41.821,57.477 41.914,58.641 27.417,66.843 
		26.701,68.534 42.012,59.871 42.386,64.535 43.745,64.394 44.938,64.727 45.514,63.634 44.846,63.583 44.608,60.609 49.297,67.966 
			"></polygon>
	<path fill="#873300" d="M69.245,49.02c-0.214,0.115-0.453,0.179-0.708,0.2v0.453l1.686,0.908V47.65
		C70.043,48.303,69.704,48.774,69.245,49.02z"></path>
	<g>
		<path fill="#873300" d="M77.34,85.541c0.334-0.664,0.586-1.436,0.735-2.319l-0.225-0.773l-3.204-2.456L77.34,85.541z"></path>
		<polygon fill="#873300" points="67.688,81.501 67.515,81.185 67.521,81.343 67.498,81.355 		"></polygon>
		<path fill="#873300" d="M59.94,71.83c0.114-0.676,0.43-1.137,0.866-1.362l0.833-0.444l-1.087-0.833l-0.583,0.154
			c-0.151,0.896-0.18,1.85-0.117,2.83L59.94,71.83z"></path>
	</g>
	<path fill="#873300" d="M67.688,67.074c1.146,0.878,2.049,2.286,2.488,3.713l2.353,4.845l-0.147-3.652
		c-0.044-1.651-0.695-3.821-2.159-4.945c-0.849-0.65-1.678-0.791-2.278-0.483c-0.173,0.089-0.32,0.225-0.45,0.387
		C67.559,66.985,67.623,67.025,67.688,67.074z"></path>
	<g>
		<polygon fill="#873300" points="67.688,81.501 67.515,81.185 67.521,81.343 67.498,81.355 		"></polygon>
		<path fill="#873300" d="M70.176,70.788l1.787,3.68l-0.565-4.33l-2.058-1.16C69.69,69.551,69.984,70.164,70.176,70.788z"></path>
		<path fill="#873300" d="M71.82,89.026c-0.485,0.74-1.092,1.306-1.797,1.685l-1.676,0.884l4.834,2.603l1.137-0.62L71.82,89.026z"></path>
	</g>
	<g>
		<polygon fill="#873300" points="67.688,81.501 67.515,81.185 67.521,81.343 67.498,81.355 		"></polygon>
		<path fill="#873300" d="M68.056,91.748c-2.055,1.105-4.92,0.637-7.852-1.61c-1.537-1.178-2.911-2.71-4.054-4.424l-1.389,3.322
			l13.968,7.522l1.266-0.691l-0.628-4.811L68.056,91.748z"></path>
	</g>
	<g>
		<path fill="#993300" d="M14.636,13.771c0.148-0.327,0.307-0.654,0.477-0.983c-0.061-0.633-0.127-1.315-0.193-2.006
			c-0.276,0.916-0.518,1.833-0.731,2.751L14.636,13.771z"></path>
		<path fill="#993300" d="M14.191,14.839l-0.257-0.137c-0.153,0.756-0.286,1.512-0.397,2.27l0.002,0.001
			C13.705,16.261,13.921,15.549,14.191,14.839z"></path>
		<g>
			<path fill="#993300" d="M17.118,14.392c0.003,0.033,0.006,0.059,0.009,0.09C17.124,14.452,17.121,14.423,17.118,14.392z"></path>
			<path fill="#993300" d="M17.061,13.798c-0.009-0.09-0.018-0.182-0.027-0.277l0,0C17.044,13.621,17.052,13.703,17.061,13.798z"></path>
			<path fill="#993300" d="M17.25,9.609l2.288-5.521c0.169,1.755,0.397,4.124,0.583,6.052c-0.17,0.328-0.329,0.656-0.477,0.983
				l-2.37-1.26c0.045,0.466,0.089,0.927,0.132,1.374l1.793,0.953c-0.271,0.711-0.486,1.422-0.653,2.134l-0.888-0.472
				c0.062,0.639,0.108,1.126,0.132,1.374l0.125,0.066l3.614-1.975l0.13-0.285c-0.088-0.909-1.161-12.047-1.161-12.047
				c-0.038-0.401-0.333-0.73-0.728-0.813l0.52-0.156c-0.376-0.055-0.75,0.12-0.938,0.455c-0.943,1.688-1.771,3.369-2.498,5.047
				C16.967,6.676,17.109,8.152,17.25,9.609z"></path>
			<path fill="#993300" d="M17.963,19.152l-0.859,0.454c-0.756,0.959-1.525,1.935-2.141,2.717l0.102-0.863
				c-0.554,0.703-1.244,1.579-1.949,2.473c0.008,0.352,0.015,0.705,0.032,1.058c0.018,0.384,0.273,0.716,0.639,0.833
				c0.366,0.117,0.766-0.005,1.004-0.307c0,0,2.578-3.273,4.47-5.675L17.963,19.152z"></path>
		</g>
	</g>
	<g>
		<path fill="#993300" d="M15.113,12.788c-0.186-1.928-0.414-4.297-0.583-6.052l-2.37,5.718l2.476,1.316
			C14.784,13.444,14.943,13.117,15.113,12.788z"></path>
		<path fill="#993300" d="M13.311,18.155l-2.395-1.273l-0.961,8.089c0.906-1.15,2.143-2.721,3.182-4.04
			C13.11,19.998,13.17,19.075,13.311,18.155z"></path>
		<path fill="#993300" d="M13.972,22.848c-1.857,2.357-4.189,5.317-4.189,5.317c-0.172,0.218-0.429,0.339-0.696,0.346
			c0.05,0.027,0.097,0.058,0.152,0.076l5.008-2.648l-0.237-0.546C13.971,24.543,13.962,23.695,13.972,22.848z"></path>
		<path fill="#993300" d="M14.191,14.839l-2.392-1.272c-0.223,0.719-0.426,1.439-0.608,2.158l2.348,1.248
			C13.705,16.261,13.921,15.549,14.191,14.839z"></path>
	</g>
	<g>
		<path fill="#993300" d="M16.642,3.308c0,0,0.186,1.931,0.409,4.249c0.871-2.221,1.916-4.445,3.165-6.681
			c0.047-0.085,0.109-0.157,0.177-0.221c-0.077-0.149-0.19-0.276-0.334-0.364l-4.2,2.221l0.055-0.017
			C16.309,2.577,16.604,2.907,16.642,3.308z"></path>
	</g>
	<polygon fill="#873300" points="86.604,95.395 97.553,89.574 97.553,94.179 86.604,100 	"></polygon>
	<path fill="#993300" d="M84.174,89.843l-4.928-2.62l-0.665,0.875l2.054,4.23c0.59,1.033,0.89,2.231,0.725,3.204
		c-0.104,0.615-0.382,1.042-0.762,1.276L86.604,100v-4.605L84.174,89.843z"></path>
	<polygon fill="#873300" points="67.521,81.343 67.498,81.355 68.169,81.869 67.262,74.923 	"></polygon>
</g>
<g id="shadow">
	<polygon fill="#000000" points="32.126,55.142 32.338,55.116 40.571,35.654 40.359,35.68 	"></polygon>
	<polygon points="25.779,70.147 26.049,70.178 31.918,56.304 31.648,56.272 	"></polygon>
	<path d="M13.15,35.373l-0.312,0.165v-8.852l-0.461,0.244v8.854l-2.206,1.173v-8.86l-0.461,0.243v8.862l-0.565,0.3
		c-0.168,0.089-0.233,0.299-0.143,0.467c0.09,0.168,0.299,0.232,0.468,0.143l1.257-0.669v3.684c0,0.191,0.094,0.317,0.237,0.388
		v6.705c0,0,0.191,0.115,0.344,0.115s0.347-0.115,0.347-0.115v-6.711c0.135-0.073,0.224-0.197,0.224-0.382v-4.144
		c0-0.052-0.009-0.098-0.022-0.141l1.618-0.86c0.169-0.089,0.232-0.298,0.143-0.467C13.527,35.347,13.318,35.283,13.15,35.373z"></path>
</g>
<g id="light">
	<polygon fill="#DB6330" points="17.693,14.473 20.762,12.795 21.53,13.319 17.803,15.355 	"></polygon>
	<path fill="#DB6330" d="M80.635,92.327l-10.46-21.54c-0.439-1.427-1.342-2.835-2.488-3.713c-1.069-0.82-2.114-0.998-2.871-0.609
		l-1.554,0.748c0.757-0.389,1.802-0.211,2.871,0.609c1.146,0.878,2.049,2.286,2.488,3.713l10.459,21.54
		c0.591,1.034,0.89,2.232,0.726,3.204c-0.11,0.651-0.41,1.098-0.826,1.322l1.554-0.748c0.415-0.223,0.715-0.671,0.825-1.322
		C81.525,94.559,81.225,93.36,80.635,92.327z"></path>
	<g>
		<path fill="#DB6330" d="M72.679,85.326l-5.181-3.971l0.023-0.012l-0.263-6.522c-0.044-1.652-0.695-3.822-2.159-4.945
			c-0.849-0.65-1.678-0.792-2.278-0.483l-2.015,1.075c0.601-0.309,1.43-0.167,2.278,0.483c1.464,1.122,2.116,3.293,2.16,4.945
			l0.261,6.476l5.207,3.992l0.225,0.773c-0.384,2.273-1.431,3.833-2.881,4.612l1.967-1.037c1.45-0.779,2.498-2.339,2.881-4.612
			L72.679,85.326z"></path>
		<polygon fill="#DB6330" points="58.599,77.045 59.139,74.948 55.381,72.067 54.798,72.221 52.831,73.257 53.414,73.103 		"></polygon>
	</g>
	<polygon fill="#DB6330" points="64.968,51.169 64.968,50.636 58.387,54.135 60.39,55.2 66.459,51.973 	"></polygon>
	<polygon fill="#DB6330" points="86.605,95.396 84.174,89.844 79.246,87.223 90.194,81.401 95.122,84.022 97.553,89.574 	"></polygon>
	<path fill="#DB6330" d="M66.848,45.98c-0.269-0.207-0.533-0.252-0.724-0.154l-0.881,0.496c0.191-0.098,0.454-0.053,0.724,0.153
		c0.466,0.357,0.773,1.06,0.687,1.571v4.031l0.88-0.495v-4.031C67.621,47.041,67.313,46.337,66.848,45.98z"></path>
	<g>
		<path fill="#DB6330" d="M37.893,23.93c0.081-0.099,0.187-0.174,0.295-0.245L20.18,14.11l-1.439,0.921l18.416,9.792L37.893,23.93z"></path>
		<path fill="#DB6330" d="M69.026,40.164c-0.105-0.08-0.21-0.153-0.313-0.221l0.009-0.023L43.515,26.518
			c0.003,0.011,0.01,0.024,0.012,0.035l0.36,1.849l23.395,12.439l-0.009,0.024c0.104,0.068,0.208,0.14,0.313,0.22
			c1.846,1.415,3.065,4.205,2.722,6.233c-0.142,0.838-0.528,1.415-1.064,1.703l1.439-0.921c0.536-0.288,0.922-0.864,1.064-1.703
			C72.09,44.369,70.872,41.578,69.026,40.164z"></path>
	</g>
	<g>
		<g>
			<polygon fill="#DB6330" points="71.103,49.504 78.934,45.34 76.931,44.275 71.103,47.374 			"></polygon>
			<polygon fill="#DB6330" points="68.536,49.673 68.536,48.738 66.654,49.739 66.654,51.87 69.654,50.275 			"></polygon>
		</g>
	</g>
	<path fill="#DB6330" d="M61.067,57.603l-1.689,30.63c-0.021,0.381,0.271,0.706,0.652,0.727c0.381,0.021,0.706-0.271,0.727-0.651
		l1.735-31.464L61.067,57.603z"></path>
	<path fill="#DB6330" d="M17.228,15.527c-0.088-0.909-1.161-12.047-1.161-12.047c-0.039-0.401-0.334-0.73-0.728-0.813l0.576-0.173
		c0.394,0.083,0.689,0.412,0.728,0.813c0,0,1.073,11.138,1.161,12.047L17.228,15.527z"></path>
	<path fill="#DB6330" d="M21.53,13.319l0.13-0.285c-0.088-0.909-1.161-12.047-1.161-12.047c-0.038-0.401-0.333-0.73-0.728-0.813
		L20.347,0c0.394,0.083,0.689,0.412,0.728,0.813c0,0,1.072,11.138,1.16,12.047v0.019L21.53,13.319z"></path>
	<polygon fill="#DB6330" points="68.099,91.726 68.73,96.558 69.997,95.867 69.368,91.057 	"></polygon>
</g>
<g id="hlight">
	<polygon fill="#FFFFFF" points="74.659,77.428 74.636,77.441 74.993,77.715 76.557,49.367 76.04,49.642 74.595,75.845 	"></polygon>
	<rect x="11.069" y="41.573" fill="#FFFFFF" width="0.25" height="6.705"></rect>
	<rect x="10.641" y="37.558" fill="#FFFFFF" width="0.25" height="3.684"></rect>
	<polygon fill="#FFFFFF" points="12.619,35.533 12.369,35.783 12.369,27.093 12.619,27.093 	"></polygon>
	<polygon fill="#FFFFFF" points="10.008,36.951 9.758,37.201 9.758,28.417 10.008,28.417 	"></polygon>
	<polygon fill="#FFFFFF" points="9.07,37.669 9.203,37.449 9.768,37.148 9.635,37.369 	"></polygon>
	<polygon fill="#FFFFFF" points="10.095,37.124 10.228,36.903 12.435,35.73 12.302,35.951 	"></polygon>
	<polygon fill="#FFFFFF" points="11.937,57.468 11.437,57.718 11.437,48.648 11.937,48.398 	"></polygon>
	<polygon fill="#FFFFFF" points="2.631,53.445 2.131,53.195 2.131,48.653 2.631,49.153 	"></polygon>
	<polygon fill="#FFFFFF" points="9.938,51.373 3.413,47.903 3.897,47.712 10.423,51.182 	"></polygon>
	<polygon fill="#FFFFFF" points="61.701,57.266 59.989,88.295 60.489,88.322 62.217,56.991 	"></polygon>
	<path fill="#FFFFFF" stroke="#000000" d="M79.013,88.876"></path>
	<path fill="#FFFFFF" d="M52.831,73.257l0.112-0.03L42.212,33.249l-0.264,0.321c-0.023,0.028-0.059,0.044-0.084,0.07l10.866,40.479
		C52.755,73.828,52.784,73.538,52.831,73.257z"></path>
	<ellipse fill="#FFFFFF" cx="3.244" cy="47.843" rx="0.557" ry="0.278"></ellipse>
	<path fill="#FFFFFF" d="M72.237,65.962l-2.015,1.074c0.844,0.647,1.416,1.643,1.759,2.687l2.016-1.072
		C73.654,67.607,73.081,66.609,72.237,65.962z"></path>
	<path fill="#FFFFFF" d="M43.758,26.38c-0.121-0.622-0.682-1.364-1.246-1.652l-2.629-1.337c-0.513-0.261-1.21-0.145-1.636,0.244
		c0.421-0.245,0.978-0.289,1.405-0.071l2.629,1.337c0.564,0.287,1.125,1.03,1.247,1.652l0.378,1.941l0.212-0.265L43.758,26.38z"></path>
	<path fill="#FFFFFF" d="M45.312,25.689c-0.121-0.622-0.682-1.364-1.246-1.652L41.436,22.7c-0.513-0.261-1.21-0.145-1.636,0.244
		c0.421-0.245,0.978-0.289,1.405-0.071l2.629,1.337c0.564,0.287,1.125,1.03,1.247,1.652l0.378,1.941l0.212-0.265L45.312,25.689z"></path>
	<path fill="#FFFFFF" d="M65.099,69.876l-2.015,1.075c0.817,0.626,1.381,1.579,1.727,2.585l2.016-1.072
		C66.48,71.457,65.916,70.503,65.099,69.876z"></path>
	<g>
		<path fill="#FFFFFF" d="M94.529,84.112c-0.079,0.01-0.14,0.042-0.163,0.084c-0.006,0.012-0.009,0.024-0.009,0.036
			c0,0.011,0.003,0.022,0.008,0.032c0.033,0.066,0.154,0.104,0.277,0.088c0.079-0.01,0.14-0.042,0.163-0.084"></path>
		<path fill="#FFFFFF" d="M93.417,84.702c-0.079,0.011-0.141,0.042-0.163,0.084c-0.006,0.012-0.009,0.024-0.009,0.036
			c0,0.011,0.003,0.022,0.008,0.032c0.034,0.065,0.154,0.104,0.277,0.088c0.079-0.01,0.14-0.042,0.163-0.084"></path>
		<path fill="#FFFFFF" d="M92.305,85.293c-0.079,0.011-0.141,0.042-0.163,0.084c-0.006,0.012-0.009,0.024-0.009,0.036
			c0,0.011,0.003,0.022,0.008,0.032c0.034,0.065,0.154,0.104,0.277,0.088c0.079-0.01,0.14-0.042,0.163-0.084"></path>
		<path fill="#FFFFFF" d="M91.194,85.884c-0.079,0.011-0.141,0.042-0.163,0.084c-0.006,0.012-0.009,0.024-0.009,0.036
			c0,0.011,0.003,0.022,0.008,0.032c0.034,0.065,0.154,0.104,0.277,0.088c0.079-0.01,0.14-0.042,0.163-0.084"></path>
		<path fill="#FFFFFF" d="M90.082,86.475c-0.079,0.011-0.141,0.042-0.163,0.084c-0.006,0.012-0.009,0.024-0.009,0.036
			c0,0.011,0.003,0.022,0.008,0.032c0.034,0.065,0.154,0.104,0.277,0.088c0.079-0.01,0.14-0.042,0.163-0.084"></path>
		<path fill="#FFFFFF" d="M88.97,87.066c-0.079,0.011-0.14,0.042-0.163,0.084c-0.006,0.012-0.009,0.024-0.009,0.036
			c0,0.011,0.003,0.022,0.008,0.032c0.034,0.065,0.154,0.104,0.277,0.088c0.079-0.01,0.14-0.042,0.163-0.084"></path>
		<path fill="#FFFFFF" d="M87.859,87.657c-0.079,0.011-0.14,0.042-0.163,0.084c-0.006,0.012-0.009,0.024-0.009,0.036
			c0,0.011,0.003,0.022,0.008,0.032c0.034,0.065,0.154,0.104,0.277,0.088c0.079-0.01,0.14-0.042,0.163-0.084"></path>
		<path fill="#FFFFFF" d="M86.747,88.247c-0.079,0.011-0.14,0.042-0.163,0.084c-0.006,0.012-0.009,0.024-0.009,0.036
			c0,0.011,0.003,0.022,0.008,0.032c0.033,0.065,0.154,0.104,0.277,0.088c0.079-0.01,0.14-0.042,0.163-0.084"></path>
		<path fill="#FFFFFF" d="M85.636,88.838c-0.079,0.011-0.14,0.042-0.163,0.084c-0.006,0.012-0.009,0.024-0.009,0.036
			c0,0.011,0.003,0.021,0.008,0.032c0.033,0.065,0.154,0.104,0.277,0.088c0.079-0.01,0.14-0.042,0.163-0.084"></path>
		<path fill="#FFFFFF" d="M84.524,89.429c-0.079,0.011-0.139,0.042-0.163,0.084c-0.006,0.012-0.009,0.024-0.009,0.036
			c0,0.011,0.003,0.021,0.008,0.032c0.032,0.066,0.154,0.105,0.277,0.088c0.079-0.01,0.14-0.042,0.163-0.084"></path>
	</g>
	<path fill="#F2F2F2" d="M91.356,95.97l-0.426,0.227v0.177l0.541-0.289v-0.596l-0.115,0.061V95.97z M91.356,95.179l-0.426,0.227
		v0.176l0.541-0.288v-0.596l-0.115,0.061V95.179z M91.356,96.761l-0.426,0.227v0.177l0.541-0.288V96.28l-0.115,0.061V96.761z
		 M90.643,94.766l-0.426,0.227v0.176l0.541-0.287v-0.596l-0.115,0.061V94.766z M90.643,95.558l-0.426,0.227v0.176l0.541-0.288
		v-0.596l-0.115,0.061V95.558z M92.07,95.59l-0.426,0.227v0.176l0.541-0.288V95.11l-0.115,0.062V95.59z M90.643,96.349l-0.426,0.227
		v0.176l0.541-0.288v-0.596l-0.115,0.061V96.349z M92.07,94.799l-0.426,0.227v0.176l0.541-0.288v-0.596l-0.115,0.061V94.799z
		 M92.07,96.381l-0.426,0.227v0.176l0.541-0.287v-0.596l-0.115,0.061V96.381z M91.356,94.387l-0.426,0.227v0.176l0.541-0.288v-0.596
		l-0.115,0.061V94.387z M92.07,94.007l-0.426,0.227v0.176l0.541-0.288v-0.596l-0.115,0.061V94.007z M89.214,97.108l-0.426,0.227
		v0.176l0.541-0.287v-0.596l-0.115,0.061V97.108z M89.214,95.525l-0.426,0.227v0.176l0.541-0.287v-0.596l-0.115,0.061V95.525z
		 M89.214,96.317l-0.426,0.227v0.176l0.541-0.288v-0.596l-0.115,0.061V96.317z M89.214,97.9l-0.426,0.227v0.176l0.541-0.288v-0.596
		l-0.115,0.061V97.9z M90.643,97.141l-0.426,0.227v0.176l0.541-0.287V96.66l-0.115,0.061V97.141z M89.929,95.938l-0.426,0.227v0.176
		l0.541-0.288v-0.596l-0.115,0.061V95.938z M89.929,97.52l-0.426,0.227v0.177l0.541-0.288v-0.596L89.929,97.1V97.52z M89.929,95.146
		l-0.426,0.227v0.176l0.541-0.288v-0.596l-0.115,0.061V95.146z M89.929,96.729l-0.426,0.227v0.176l0.541-0.288v-0.596l-0.115,0.061
		V96.729z M94.925,92.49l-0.426,0.226v0.176l0.541-0.288v-0.596l-0.115,0.061V92.49z M94.925,94.864l-0.426,0.227v0.176l0.541-0.288
		v-0.596l-0.115,0.061V94.864z M94.925,93.281l-0.426,0.226v0.177l0.541-0.288V92.8l-0.115,0.061V93.281z M94.925,94.072
		l-0.426,0.226v0.177l0.541-0.288v-0.596l-0.115,0.061V94.072z M94.211,93.66l-0.426,0.227v0.176l0.541-0.288v-0.596l-0.115,0.061
		V93.66z M94.211,92.869l-0.426,0.227v0.176l0.541-0.288v-0.596l-0.115,0.061V92.869z M95.638,94.484l-0.426,0.227v0.176
		l0.541-0.288v-0.596l-0.115,0.061V94.484z M95.638,92.901l-0.426,0.227v0.176l0.541-0.287V92.42l-0.115,0.061V92.901z
		 M95.638,91.69v0.42l-0.426,0.227v0.176l0.541-0.287v-0.596L95.638,91.69z M95.638,93.693l-0.426,0.227v0.176l0.541-0.288v-0.596
		l-0.115,0.061V93.693z M94.211,95.244l-0.426,0.227v0.176l0.541-0.288v-0.596l-0.115,0.062V95.244z M93.497,95.623l-0.426,0.227
		v0.176l0.541-0.288v-0.596l-0.115,0.062V95.623z M92.783,93.628l-0.426,0.227v0.176l0.541-0.288v-0.596l-0.115,0.061V93.628z
		 M92.783,94.419l-0.426,0.227v0.176l0.541-0.288v-0.596L92.783,94V94.419z M94.211,94.452l-0.426,0.227v0.176l0.541-0.288v-0.596
		l-0.115,0.061V94.452z M92.783,95.211l-0.426,0.227v0.176l0.541-0.289V94.73l-0.115,0.061V95.211z M93.497,93.248l-0.426,0.227
		v0.176l0.541-0.288v-0.596l-0.115,0.061V93.248z M92.783,96.002l-0.426,0.227v0.176l0.541-0.289v-0.595l-0.115,0.061V96.002z
		 M93.497,94.831l-0.426,0.226v0.177l0.541-0.288V94.35l-0.115,0.061V94.831z M93.497,94.04l-0.426,0.226v0.176l0.541-0.288v-0.596
		l-0.115,0.061V94.04z"></path>
	<polygon fill="#FFFFFF" points="39.15,33.408 21.146,75.971 21.376,76.604 39.56,33.616 	"></polygon>
</g>
</g>
</svg>