<svg version="1.1" id="Layer_1" xmlns="http://www.w3.org/2000/svg" xmlns:xlink="http://www.w3.org/1999/xlink" x="0px" y="0px" viewBox="0 0 100 100" xml:space="preserve"><desc>Copyright Opto 22</desc> 
<g>
	<g id="shape">
		<path fill="#999999" d="M95.795,32.509c-2.312,0-4.205,0-4.205,0v1.449h-2.475v-6.52h-9.894v6.52h-23.08v-6.52h-9.894
			v6.52h-2.921v-1.449c0,0-1.892,0-4.205,0c-2.312,0-4.205,2.553-4.205,5.675v4.226c-0.692,0-1.611,0-2.624,0
			c-1.227,0-1.842,0.849-2.145,2.162c-0.405-1.314-1.141-2.162-2.367-2.162c-0.537,0-1.048,0-1.514,0V27.648
			c0-4.682-3.215-8.513-7.144-8.513c-3.929,0-7.144,3.831-7.144,8.513v17.416H5.684v-3.863H0.737v18.353h4.947v-3.863h6.295v17.416
			c0,4.682,3.215,8.513,7.144,8.513c3.929,0,7.144-3.831,7.144-8.513V58.346c0.466,0,0.978,0,1.514,0
			c1.227,0,1.962-0.848,2.367-2.161c0.303,1.314,0.918,2.164,2.145,2.164c1.013,0,1.932,0,2.624,0v4.223
			c0,3.122,1.892,5.675,4.205,5.675c2.312,0,4.205,0,4.205,0V66.8h2.921v6.761h9.894V66.8h23.08v6.761h9.894V66.8h2.475v1.446
			c0,0,1.892,0,4.205,0c2.312,0,4.205-2.553,4.205-5.675V38.184C100,35.062,98.108,32.509,95.795,32.509z"></path>
	</g>
	<g id="gradient"></g>
	<g id="dark">
		<path fill="#808080" d="M26.267,69.56c0,2.34-3.215,4.256-7.144,4.256c-3.929,0-7.144-1.916-7.144-4.256v3.547
			c0,4.682,3.215,8.513,7.144,8.513c3.929,0,7.144-3.831,7.144-8.513V69.56z"></path>
		<rect x="0.737" y="54.68" fill="#808080" width="4.947" height="4.874"></rect>
		<path fill="#808080" d="M95.795,65.409c-1.155,0-2.205,0-2.967,0v-3.076H40.883v3.076c-0.538,0-1.131,0-1.761,0
			c-2.312,0-4.205-1.915-4.205-4.256v1.419c0,3.122,1.892,5.675,4.205,5.675c2.312,0,4.205,0,4.205,0V66.8H91.59v1.446
			c0,0,1.892,0,4.205,0c2.312,0,4.205-2.553,4.205-5.675v-1.419C100,63.494,98.108,65.409,95.795,65.409z"></path>
	</g>
	<g id="light">
		<path fill="#B5B5B5" d="M26.267,34.742c0-2.34-3.215-4.256-7.144-4.256c-3.929,0-7.144,1.916-7.144,4.256v-7.094
			c0-4.682,3.215-8.513,7.144-8.513c3.929,0,7.144,3.831,7.144,8.513V34.742z"></path>
		<polygon fill="#B5B5B5" points="5.684,45.037 5.684,41.201 0.737,41.201 0.737,48.913 4.694,48.913 4.694,49.556 11.156,49.556 
			11.156,45.037 		"></polygon>
		<path fill="#B5B5B5" d="M95.795,32.509c-2.312,0-4.205,0-4.205,0v1.449H43.327v-1.449c0,0-1.892,0-4.205,0
			c-2.312,0-4.205,2.553-4.205,5.675v6.739c0-1.951,1.892-3.547,4.205-3.547c0.63,0,1.223,0,1.761,0v2.014h51.945v-2.014
			c0.762,0,1.812,0,2.967,0c2.312,0,4.205,1.596,4.205,3.547v-6.739C100,35.062,98.108,32.509,95.795,32.509z"></path>
	</g>
	<g id="shadow">
		<rect x="79.222" y="66.8" fill="#666666" width="9.894" height="6.761"></rect>
		<rect x="46.248" y="66.8" fill="#666666" width="9.894" height="6.761"></rect>
	</g>
	<g id="hlight">
		<rect x="0.737" y="42.257" fill="#CCCCCC" width="4.947" height="4.536"></rect>
		<path fill="#CCCCCC" d="M17.124,26.191c0,2.501,1.717,4.546,3.815,4.546c2.098,0,3.815-2.045,3.815-4.546v-1.52
			c0-2.501-1.717-4.546-3.815-4.546c-2.098,0-3.815,2.045-3.815,4.546V26.191z"></path>
		<path fill="#CCCCCC" d="M95.795,33.574c-2.312,0-4.205,0-4.205,0v2.742H43.327v-2.742c0,0-1.892,0-4.205,0
			c-2.312,0-4.205,2.074-4.205,4.61v4.434c0-2.535,1.892-4.61,4.205-4.61c0.63,0,1.223,0,1.761,0v3.025h51.945v-3.025
			c0.762,0,1.812,0,2.967,0c2.312,0,4.205,2.074,4.205,4.61v-4.434C100,35.648,98.108,33.574,95.795,33.574z"></path>
	</g>
</g>
</svg>